PathFileType	4	(X/Y/Z)	E:\Qualisys_Data\Carbon_Farble_Plate\Data\Amateur_Runner\S14\T1\S14T1V23_c3d.trc
DataRate	CameraRate	NumFrames	NumMarkers	Units	OrigDataRate	OrigDataStartFrame	OrigNumFrames
200.000000	200.000000	4	39	mm	200.000000	231	308
Frame#	Time	LSHO			RSHO			LICST			RICST			LASIS			LHEEL			RASIS			LTROC			RTROC			SACR			LTH1			LSK4			LTH2			LTH3			RHM5			LSK2			LTH4			RTH1			LTOE			RTH2			RTH3			RTH4			LLEP			RLEP			LSK1			LSK3			RSK1			LHM5			RSK2			LFT1			RSK3			RSK4			LLME			RLME			RTOE			RHEEL			RFT1			RFT2			LFT2			
		X1	Y1	Z1	X2	Y2	Z2	X3	Y3	Z3	X4	Y4	Z4	X5	Y5	Z5	X6	Y6	Z6	X7	Y7	Z7	X8	Y8	Z8	X9	Y9	Z9	X10	Y10	Z10	X11	Y11	Z11	X12	Y12	Z12	X13	Y13	Z13	X14	Y14	Z14	X15	Y15	Z15	X16	Y16	Z16	X17	Y17	Z17	X18	Y18	Z18	X19	Y19	Z19	X20	Y20	Z20	X21	Y21	Z21	X22	Y22	Z22	X23	Y23	Z23	X24	Y24	Z24	X25	Y25	Z25	X26	Y26	Z26	X27	Y27	Z27	X28	Y28	Z28	X29	Y29	Z29	X30	Y30	Z30	X31	Y31	Z31	X32	Y32	Z32	X33	Y33	Z33	X34	Y34	Z34	X35	Y35	Z35	X36	Y36	Z36	X37	Y37	Z37	X38	Y38	Z38	X39	Y39	Z39	

232	1.155	1586.808471679688	1405.75341796875	-511.21484375	1668.29248046875	1412.288452148438	-225.7437744140625	1607.161987304688	957.5853271484376	-465.8099670410156	1648.409545898438	965.2537841796876	-193.7306518554688	1654.87158203125	911.98291015625	-440.2351989746094	1729.116821289062	66.89738464355469	-341.2420959472656	1671.935546875	920.3365478515624	-210.5009460449219	1520.289672851562	827.9967651367188	-474.7721862792969	1518.061157226562	877.167236328125	-152.9376983642578	1489.622314453125	958.137451171875	-323.5478820800781	1689.36328125	631.962158203125	-481.1750183105469	1711.337524414062	261.2244873046875	-423.012451171875	1623.39794921875	601.4887084960938	-452.2391662597656	1740.73193359375	550.0775146484375	-456.3145751953125	1044.582763671875	269.4513244628906	-177.4547576904297	1701.3935546875	358.36181640625	-442.6763916015625	1671.200805664062	518.1649169921875	-434.4835815429688	1594.88818359375	616.5661010742188	-152.6043548583984	1983.704345703125	81.75724792480469	-389.3654174804688	1520.401977539062	637.1925659179688	-141.02197265625	1571.356079101562	518.4317626953125	-170.4944152832031	1490.731323242188	540.6264038085938	-155.9142913818359	1742.729614257812	476.7692565917969	-447.8382873535156	1486.0830078125	470.7044372558594	-159.0266418457031	1782.908203125	367.0227355957031	-446.4581909179688	1791.816772460938	266.3758850097656	-429.868408203125	1384.429443359375	405.12890625	-160.7223052978516	1913.156372070312	50.55845260620117	-441.372802734375	1360.951171875	488.1695556640625	-162.3120269775391	1745.068481445312	43.80191421508789	-314.5283203125	1284.051391601562	384.3135375976562	-181.7465972900391	1269.942504882812	462.8700866699219	-182.8089447021484	1776.442504882812	88.00846862792969	-404.7673645019531	1112.472290039062	397.3739013671875	-212.9623565673828	1058.136352539062	190.0663146972656	-227.1396331787109	1094.938720703125	441.9590759277344	-280.2955627441406	1067.887451171875	424.6217651367188	-308.2461853027344	1070.64453125	447.9933166503906	-251.8305816650391	1729.754516601562	38.59694290161133	-367.3195495605469
233	1.16	1607.4462890625	1399.666015625	-512.6325073242188	1686.172119140625	1407.453491210938	-225.9610595703125	1624.669067382812	953.1114501953124	-466.6999816894531	1667.727783203125	960.0642700195312	-194.0748291015625	1672.961547851562	908.2200927734376	-441.2847900390625	1732.54296875	66.7694320678711	-341.6176147460938	1691.2314453125	915.490478515625	-211.3317718505859	1538.003540039062	823.5634155273438	-473.8582153320312	1538.5908203125	870.5830078125	-152.2092590332031	1508.093872070312	953.2658081054688	-322.7025146484375	1709.306640625	628.6820678710938	-481.2078247070312	1725.220458984375	259.6414794921875	-422.5501403808594	1643.048828125	598.23046875	-453.4941101074219	1760.926635742188	546.7251586914062	-456.88916015625	1070.255859375	270.9649658203125	-179.2235107421875	1718.875854492188	357.2155151367188	-443.1861267089844	1691.246215820312	514.7813110351562	-435.8327941894531	1619.33984375	611.2426147460938	-152.9454803466797	1990.457153320312	71.77289581298828	-383.1603393554688	1544.543212890625	630.4705200195312	-140.8148803710938	1597.82470703125	512.705322265625	-170.4139404296875	1516.642700195312	533.3749389648438	-155.3301696777344	1762.600219726562	473.2242431640625	-448.0830688476562	1513.080322265625	463.980224609375	-157.9219665527344	1800.492553710938	362.4268798828125	-446.4116516113281	1805.56201171875	261.6580810546875	-428.7801513671875	1411.535400390625	400.1550598144531	-160.9581146240234	1918.664916992188	49.72124099731445	-439.112060546875	1389.158813476562	483.4296264648438	-161.3662414550781	1747.492309570312	42.39170837402344	-314.6092834472656	1310.757202148438	380.9524230957031	-182.4207611083984	1297.595947265625	459.8519592285156	-182.4574127197266	1782.170288085938	85.59545135498047	-404.0075988769531	1139.478637695312	397.7351989746094	-213.5580749511719	1083.015869140625	191.4717407226562	-228.8761901855469	1122.203369140625	443.4758911132812	-280.9652099609375	1095.570922851562	426.6626892089844	-308.897216796875	1098.388671875	449.2587585449219	-252.5785675048828	1732.045532226562	38.24239349365234	-367.5564575195312
234	1.165	1628.25927734375	1393.490844726562	-514.263916015625	1704.250244140625	1402.720825195312	-226.1256713867188	1642.817749023438	948.721435546875	-467.5719604492188	1687.150390625	954.5860595703124	-194.2841339111328	1690.61328125	904.7815551757812	-442.0634765625	1735.738159179688	66.92762756347656	-339.9928894042969	1710.861938476562	910.300048828125	-212.0981903076172	1556.112670898438	817.6336669921875	-471.5116882324219	1559.47900390625	863.98779296875	-151.6510314941406	1526.292114257812	948.312744140625	-322.0310363769531	1728.548706054688	625.969482421875	-482.6811218261719	1738.515502929688	259.8491516113281	-422.9973449707031	1662.529296875	595.1089477539062	-454.241455078125	1780.657836914062	544.256591796875	-456.8446350097656	1096.406982421875	271.7087707519531	-180.3538208007812	1736.484497070312	357.484130859375	-444.1846618652344	1710.736328125	511.7787170410156	-436.5061950683594	1644.002807617188	606.3347778320312	-153.6439514160156	1991.579711914062	68.40349578857422	-384.3606567382812	1569.005126953125	624.1854858398438	-140.2915496826172	1624.198364257812	506.9601745605469	-170.8903656005859	1542.736328125	526.1912231445312	-154.7620697021484	1783.265625	469.8204650878906	-448.0931701660156	1540.758544921875	456.5943298339844	-158.300537109375	1818.988891601562	359.1717834472656	-445.5433349609375	1818.6630859375	258.1287841796875	-427.7667236328125	1439.162719726562	395.2113342285156	-161.0721740722656	1920.136352539062	50.50139999389648	-437.1582946777344	1417.671630859375	478.5634155273438	-160.5068359375	1749.409423828125	41.97126770019531	-313.5199890136719	1338.070922851562	377.6910705566406	-182.7583770751953	1326.14501953125	456.794189453125	-181.8295135498047	1787.197509765625	84.77259063720703	-402.1629028320312	1167.094604492188	398.0606079101562	-213.9741973876953	1108.787841796875	192.6168518066406	-230.8656311035156	1149.766845703125	443.9931335449219	-281.6833190917969	1123.623779296875	428.1237182617188	-309.3937377929688	1126.297485351562	450.3856506347656	-252.9582672119141	1733.714233398438	40.025390625	-366.4638671875
235	1.17	1648.964721679688	1387.401489257812	-515.79931640625	1722.026977539062	1398.057006835938	-226.1274108886719	1660.271118164062	944.4572143554688	-468.4822692871094	1706.292602539062	949.103759765625	-193.6956787109375	1708.347534179688	900.906005859375	-442.9884643554688	1738.506469726562	68.6977310180664	-337.4078063964844	1729.905517578125	905.11669921875	-212.8457794189453	1573.845336914062	812.74169921875	-470.9648742675781	1579.874633789062	857.4002075195312	-151.2459259033203	1544.218017578125	943.7459716796876	-321.5167236328125	1747.441162109375	623.7189331054688	-482.8769226074219	1752.618530273438	261.310791015625	-424.4373474121094	1681.9296875	592.8427124023438	-454.6691284179688	1800.481323242188	542.4999389648438	-457.1622924804688	1123.362182617188	271.5923767089844	-182.3199005126953	1754.413330078125	358.770751953125	-445.6765747070312	1730.999267578125	510.3056945800781	-437.8003234863281	1668.536010742188	601.5934448242188	-154.1913299560547	1990.561279296875	63.84879684448242	-385.9386596679688	1593.517578125	617.514404296875	-140.1543579101562	1651.369384765625	501.6384582519531	-171.2644500732422	1569.558837890625	518.9918823242188	-154.7114715576172	1805.031860351562	467.9025573730469	-448.361083984375	1568.457275390625	450.5686645507812	-157.6699981689453	1837.149658203125	357.3273620605469	-444.4627990722656	1832.43798828125	256.321044921875	-426.50927734375	1467.0361328125	390.0972900390625	-161.0829010009766	1919.452514648438	49.26824188232422	-438.2824401855469	1446.7177734375	473.5821838378906	-159.2738647460938	1750.860473632812	42.53116989135742	-312.30810546875	1366.063842773438	374.0337829589844	-184.2428894042969	1355.054931640625	453.2140197753906	-180.9940338134766	1789.886352539062	85.87837219238281	-400.41845703125	1195.371704101562	397.5346984863281	-214.5715789794922	1135.646240234375	193.2034149169922	-233.2761840820312	1178.955444335938	444.990966796875	-281.2594604492188	1152.384765625	429.0495910644531	-309.4262390136719	1155.236938476562	451.0348815917969	-252.7444763183594	1735.04052734375	42.36624908447266	-365.1246337890625
